<?xml version="1.0" encoding="UTF-8"?>
<svg id="Layer_2" data-name="Layer 2" xmlns="http://www.w3.org/2000/svg" viewBox="0 0 741.06 292.99">
  <defs>
    <style>
      .cls-1, .cls-2 {
        fill: #1c7a48;
      }

      .cls-2 {
        font-family: Montserrat-ExtraBold, Montserrat;
        font-size: 200px;
        font-weight: 700;
      }

      .cls-3 {
        letter-spacing: .01em;
      }

      .cls-4 {
        letter-spacing: 0em;
      }

      .cls-5 {
        fill: none;
        stroke: #1c7a48;
        stroke-miterlimit: 10;
        stroke-width: 9px;
      }
    </style>
  </defs>
  <g id="Layer_1-2" data-name="Layer 1">
    <g>
      <g>
        <g>
          <circle class="cls-5" cx="111.5" cy="126.73" r="53.5"/>
          <circle class="cls-5" cx="84.5" cy="99.73" r="53.5"/>
          <circle class="cls-5" cx="58" cy="126.23" r="53.5"/>
          <circle class="cls-5" cx="84.5" cy="151.73" r="53.5"/>
        </g>
        <text class="cls-2" transform="translate(203.26 170)"><tspan x="0" y="0">a</tspan><tspan class="cls-3" x="125.6" y="0">r</tspan><tspan class="cls-4" x="217.2" y="0">ty</tspan><tspan x="426.6" y="0">z</tspan></text>
      </g>
      <g>
        <path class="cls-1" d="m52.43,269.57v12.83h-5.88v-12.93l-16.5-24.17h6.35l13.3,19.55,13.36-19.55h5.88l-16.5,24.27Z"/>
        <path class="cls-1" d="m69.11,268.35c0-8.37,6.94-14.31,16.38-14.31s16.32,5.93,16.32,14.31-6.89,14.36-16.32,14.36-16.38-5.99-16.38-14.36Zm26.95,0c0-5.99-4.51-9.86-10.57-9.86s-10.62,3.87-10.62,9.86,4.57,9.91,10.62,9.91,10.57-3.92,10.57-9.91Z"/>
        <path class="cls-1" d="m140.51,254.31v28.09h-5.4v-4.24c-2.32,2.91-6.23,4.56-10.68,4.56-8.13,0-13.53-3.97-13.53-12.24v-16.16h5.7v15.58c0,5.51,3.09,8.27,8.49,8.27,5.94,0,9.73-3.29,9.73-9.33v-14.52h5.7Z"/>
        <path class="cls-1" d="m174.14,245.3h5.94v37.1h-5.94v-37.1Z"/>
        <path class="cls-1" d="m245.43,266.23v16.16h-5.7v-15.58c0-5.51-2.97-8.21-8.13-8.21-5.7,0-9.44,3.23-9.44,9.33v14.47h-5.7v-15.58c0-5.51-2.97-8.21-8.13-8.21-5.7,0-9.44,3.23-9.44,9.33v14.47h-5.7v-28.09h5.46v4.19c2.26-2.86,6.11-4.45,10.86-4.45s8.84,1.7,10.92,5.19c2.37-3.18,6.77-5.19,12.11-5.19,7.66,0,12.88,3.92,12.88,12.19Z"/>
        <path class="cls-1" d="m280.36,265.44v16.96h-5.4v-3.71c-1.9,2.54-5.4,4.03-10.33,4.03-7.12,0-11.63-3.39-11.63-8.27,0-4.5,3.26-8.21,12.64-8.21h9.02v-1.01c0-4.29-2.79-6.78-8.43-6.78-3.74,0-7.54,1.17-9.97,3.02l-2.37-3.82c3.26-2.33,7.95-3.6,13-3.6,8.61,0,13.47,3.71,13.47,11.39Zm-5.7,8.37v-3.92h-8.79c-5.64,0-7.24,1.96-7.24,4.35,0,2.81,2.61,4.56,6.94,4.56s7.66-1.75,9.08-4.98Z"/>
        <path class="cls-1" d="m321.68,254.31v24.27c0,9.91-5.64,14.41-16.32,14.41-5.76,0-11.57-1.43-15.02-4.19l2.73-3.92c2.91,2.22,7.48,3.66,12.11,3.66,7.42,0,10.8-3.07,10.8-9.43v-2.22c-2.73,2.91-6.83,4.34-11.34,4.34-9.08,0-15.97-5.51-15.97-13.62s6.88-13.57,15.97-13.57c4.69,0,8.96,1.54,11.63,4.61v-4.35h5.4Zm-5.58,13.3c0-5.46-4.51-9.12-10.8-9.12s-10.86,3.66-10.86,9.12,4.51,9.17,10.86,9.17,10.8-3.76,10.8-9.17Z"/>
        <path class="cls-1" d="m335.02,245.62c0-1.85,1.66-3.34,3.86-3.34s3.86,1.43,3.86,3.23c0,1.91-1.6,3.39-3.86,3.39s-3.86-1.43-3.86-3.29Zm1.01,8.69h5.7v28.09h-5.7v-28.09Z"/>
        <path class="cls-1" d="m384.93,266.23v16.16h-5.7v-15.58c0-5.51-3.09-8.21-8.49-8.21-6.05,0-9.97,3.23-9.97,9.33v14.47h-5.7v-28.09h5.46v4.24c2.31-2.86,6.35-4.5,11.34-4.5,7.66,0,13.06,3.92,13.06,12.19Z"/>
        <path class="cls-1" d="m425.47,270.05h-25.52c.71,4.93,5.16,8.21,11.4,8.21,3.68,0,6.77-1.11,9.08-3.39l3.15,3.29c-2.85,2.97-7.18,4.56-12.41,4.56-10.15,0-16.92-5.99-16.92-14.36s6.71-14.31,15.79-14.31,15.55,5.83,15.55,14.47c0,.42-.06,1.06-.12,1.54Zm-25.52-3.66h20.18c-.59-4.72-4.57-8.06-10.09-8.06s-9.5,3.29-10.09,8.06Z"/>
        <path class="cls-1" d="m440.25,279.06c0,1.06-.24,1.86-1.01,3.82l-2.79,7.37h-3.74l2.2-7.9c-1.48-.48-2.49-1.7-2.49-3.29,0-2.12,1.72-3.6,3.98-3.6s3.86,1.54,3.86,3.6Z"/>
        <path class="cls-1" d="m472.21,245.3h5.94v37.1h-5.94v-37.1Z"/>
        <path class="cls-1" d="m508.81,268.35c0-8.37,6.94-14.31,16.62-14.31,5.64,0,10.33,2.07,12.82,5.99l-4.33,2.49c-2.02-2.76-5.11-4.03-8.55-4.03-6.17,0-10.8,3.87-10.8,9.86s4.63,9.91,10.8,9.91c3.44,0,6.53-1.27,8.55-4.03l4.33,2.44c-2.49,3.92-7.18,6.04-12.82,6.04-9.68,0-16.62-5.99-16.62-14.36Z"/>
        <path class="cls-1" d="m566.01,254.04v4.93c-.48-.05-.89-.05-1.31-.05-6.11,0-9.91,3.34-9.91,9.49v13.99h-5.7v-28.09h5.46v4.72c2.02-3.29,5.94-4.98,11.46-4.98Z"/>
        <path class="cls-1" d="m602.52,270.05h-25.52c.71,4.93,5.16,8.21,11.4,8.21,3.68,0,6.77-1.11,9.08-3.39l3.15,3.29c-2.85,2.97-7.18,4.56-12.41,4.56-10.15,0-16.92-5.99-16.92-14.36s6.71-14.31,15.79-14.31,15.55,5.83,15.55,14.47c0,.42-.06,1.06-.12,1.54Zm-25.52-3.66h20.18c-.59-4.72-4.57-8.06-10.09-8.06s-9.5,3.29-10.09,8.06Z"/>
        <path class="cls-1" d="m636.06,265.44v16.96h-5.4v-3.71c-1.9,2.54-5.4,4.03-10.33,4.03-7.12,0-11.63-3.39-11.63-8.27,0-4.5,3.26-8.21,12.64-8.21h9.02v-1.01c0-4.29-2.79-6.78-8.43-6.78-3.74,0-7.54,1.17-9.97,3.02l-2.37-3.82c3.26-2.33,7.95-3.6,13-3.6,8.61,0,13.47,3.71,13.47,11.39Zm-5.7,8.37v-3.92h-8.79c-5.64,0-7.24,1.96-7.24,4.35,0,2.81,2.61,4.56,6.94,4.56s7.66-1.75,9.08-4.98Z"/>
        <path class="cls-1" d="m666.79,280.75c-1.72,1.33-4.33,1.96-6.89,1.96-6.35,0-9.97-3.13-9.97-8.8v-15.42h-5.34v-4.19h5.34v-6.15h5.7v6.15h9.02v4.19h-9.02v15.21c0,3.02,1.78,4.72,4.93,4.72,1.66,0,3.26-.48,4.45-1.33l1.78,3.66Z"/>
        <path class="cls-1" d="m702.41,270.05h-25.52c.71,4.93,5.16,8.21,11.4,8.21,3.68,0,6.77-1.11,9.08-3.39l3.15,3.29c-2.85,2.97-7.18,4.56-12.41,4.56-10.15,0-16.92-5.99-16.92-14.36s6.71-14.31,15.79-14.31,15.55,5.83,15.55,14.47c0,.42-.06,1.06-.12,1.54Zm-25.52-3.66h20.18c-.59-4.72-4.57-8.06-10.09-8.06s-9.5,3.29-10.09,8.06Z"/>
      </g>
    </g>
  </g>
</svg>