<?xml version="1.0" encoding="UTF-8"?>
<svg id="Layer_2" data-name="Layer 2" xmlns="http://www.w3.org/2000/svg" viewBox="0 0 109.4 37.27">
  <defs>
    <style>
    
    </style>
  </defs>
  <g id="Layer_1-2" data-name="Layer 1">
    <g>
      <circle class="cls-2" cx="18.92" cy="14.49" r="8.96"/>
      <circle class="cls-2" cx="14.4" cy="9.96" r="8.96"/>
      <circle class="cls-2" cx="9.96" cy="14.4" r="8.96"/>
      <circle class="cls-2" cx="14.4" cy="18.67" r="8.96"/>
    </g>
    <g>
      <path class="cls-1" d="m47.62,13.73v8.87h-5.21v-2.06c-.8,1.53-2.39,2.33-4.71,2.33-3.83,0-5.95-2.15-5.95-4.92,0-2.95,2.15-4.77,7.1-4.77h3.18c-.09-1.62-1.18-2.53-3.39-2.53-1.53,0-3.24.53-4.33,1.39l-1.89-3.8c1.83-1.21,4.54-1.86,7.04-1.86,5.19,0,8.16,2.3,8.16,7.37Zm-5.6,3.74v-1.38h-2.42c-1.8,0-2.45.65-2.45,1.62s.77,1.62,2.09,1.62c1.24,0,2.33-.59,2.77-1.86Z"/>
      <path class="cls-1" d="m61.85,6.36v5.04c-.5-.06-.85-.09-1.27-.09-2.27,0-3.83,1.15-3.83,3.95v7.34h-5.6V6.62h5.33v1.92c1.15-1.44,3-2.18,5.36-2.18Z"/>
      <path class="cls-1" d="m75.67,21.95c-.97.62-2.42.91-3.89.91-4.1,0-6.48-2-6.48-6.1v-5.36h-2.33v-4.18h2.33V3.06h5.6v4.15h3.65v4.18h-3.65v5.3c0,1.18.68,1.83,1.68,1.83.62,0,1.24-.18,1.71-.5l1.38,3.92Z"/>
      <path class="cls-1" d="m94.35,6.62l-6.9,16.62c-1.68,4.12-4.04,5.33-7.19,5.33-1.68,0-3.56-.56-4.63-1.44l1.95-3.92c.65.59,1.59.94,2.47.94,1.09,0,1.71-.41,2.18-1.36l-6.84-16.18h5.75l3.92,9.75,3.95-9.75h5.33Z"/>
      <path class="cls-1" d="m109.4,18.41v4.18h-14.73v-3.3l7.4-8.52h-7.19v-4.15h14.23v3.27l-7.4,8.52h7.69Z"/>
    </g>
    <g>
      <path class="cls-1" d="m8.64,33.82v1.89h-.87v-1.9l-2.43-3.56h.94l1.96,2.88,1.97-2.88h.87l-2.43,3.58Z"/>
      <path class="cls-1" d="m11.1,33.64c0-1.23,1.02-2.11,2.41-2.11s2.4.87,2.4,2.11-1.01,2.12-2.4,2.12-2.41-.88-2.41-2.12Zm3.97,0c0-.88-.66-1.45-1.56-1.45s-1.57.57-1.57,1.45.67,1.46,1.57,1.46,1.56-.58,1.56-1.46Z"/>
      <path class="cls-1" d="m21.62,31.57v4.14h-.8v-.62c-.34.43-.92.67-1.57.67-1.2,0-1.99-.59-1.99-1.8v-2.38h.84v2.29c0,.81.45,1.22,1.25,1.22.87,0,1.43-.48,1.43-1.37v-2.14h.84Z"/>
      <path class="cls-1" d="m26.57,30.24h.87v5.46h-.87v-5.46Z"/>
      <path class="cls-1" d="m37.07,33.33v2.38h-.84v-2.29c0-.81-.44-1.21-1.2-1.21-.84,0-1.39.48-1.39,1.37v2.13h-.84v-2.29c0-.81-.44-1.21-1.2-1.21-.84,0-1.39.48-1.39,1.37v2.13h-.84v-4.14h.8v.62c.33-.42.9-.66,1.6-.66s1.3.25,1.61.76c.35-.47,1-.76,1.78-.76,1.13,0,1.9.58,1.9,1.8Z"/>
      <path class="cls-1" d="m42.22,33.21v2.5h-.8v-.55c-.28.37-.8.59-1.52.59-1.05,0-1.71-.5-1.71-1.22,0-.66.48-1.21,1.86-1.21h1.33v-.15c0-.63-.41-1-1.24-1-.55,0-1.11.17-1.47.44l-.35-.56c.48-.34,1.17-.53,1.91-.53,1.27,0,1.98.55,1.98,1.68Zm-.84,1.23v-.58h-1.29c-.83,0-1.07.29-1.07.64,0,.41.38.67,1.02.67s1.13-.26,1.34-.73Z"/>
      <path class="cls-1" d="m48.3,31.57v3.58c0,1.46-.83,2.12-2.4,2.12-.85,0-1.7-.21-2.21-.62l.4-.58c.43.33,1.1.54,1.78.54,1.09,0,1.59-.45,1.59-1.39v-.33c-.4.43-1.01.64-1.67.64-1.34,0-2.35-.81-2.35-2.01s1.01-2,2.35-2c.69,0,1.32.23,1.71.68v-.64h.8Zm-.82,1.96c0-.8-.66-1.34-1.59-1.34s-1.6.54-1.6,1.34.66,1.35,1.6,1.35,1.59-.55,1.59-1.35Z"/>
      <path class="cls-1" d="m50.27,30.29c0-.27.24-.49.57-.49s.57.21.57.48c0,.28-.24.5-.57.5s-.57-.21-.57-.48Zm.15,1.28h.84v4.14h-.84v-4.14Z"/>
      <path class="cls-1" d="m57.62,33.33v2.38h-.84v-2.29c0-.81-.45-1.21-1.25-1.21-.89,0-1.47.48-1.47,1.37v2.13h-.84v-4.14h.8v.62c.34-.42.94-.66,1.67-.66,1.13,0,1.92.58,1.92,1.8Z"/>
      <path class="cls-1" d="m63.59,33.89h-3.76c.1.73.76,1.21,1.68,1.21.54,0,1-.16,1.34-.5l.46.48c-.42.44-1.06.67-1.83.67-1.5,0-2.49-.88-2.49-2.12s.99-2.11,2.33-2.11,2.29.86,2.29,2.13c0,.06,0,.16-.02.23Zm-3.76-.54h2.97c-.09-.69-.67-1.19-1.49-1.19s-1.4.48-1.49,1.19Z"/>
      <path class="cls-1" d="m65.77,35.21c0,.16-.03.27-.15.56l-.41,1.08h-.55l.32-1.16c-.22-.07-.37-.25-.37-.48,0-.31.25-.53.59-.53s.57.23.57.53Z"/>
      <path class="cls-1" d="m70.48,30.24h.87v5.46h-.87v-5.46Z"/>
      <path class="cls-1" d="m75.87,33.64c0-1.23,1.02-2.11,2.45-2.11.83,0,1.52.3,1.89.88l-.64.37c-.3-.41-.75-.59-1.26-.59-.91,0-1.59.57-1.59,1.45s.68,1.46,1.59,1.46c.51,0,.96-.19,1.26-.59l.64.36c-.37.58-1.06.89-1.89.89-1.43,0-2.45-.88-2.45-2.12Z"/>
      <path class="cls-1" d="m84.29,31.53v.73c-.07,0-.13,0-.19,0-.9,0-1.46.49-1.46,1.4v2.06h-.84v-4.14h.8v.69c.3-.48.87-.73,1.69-.73Z"/>
      <path class="cls-1" d="m89.67,33.89h-3.76c.1.73.76,1.21,1.68,1.21.54,0,1-.16,1.34-.5l.46.48c-.42.44-1.06.67-1.83.67-1.5,0-2.49-.88-2.49-2.12s.99-2.11,2.33-2.11,2.29.86,2.29,2.13c0,.06,0,.16-.02.23Zm-3.76-.54h2.97c-.09-.69-.67-1.19-1.49-1.19s-1.4.48-1.49,1.19Z"/>
      <path class="cls-1" d="m94.61,33.21v2.5h-.8v-.55c-.28.37-.8.59-1.52.59-1.05,0-1.71-.5-1.71-1.22,0-.66.48-1.21,1.86-1.21h1.33v-.15c0-.63-.41-1-1.24-1-.55,0-1.11.17-1.47.44l-.35-.56c.48-.34,1.17-.53,1.91-.53,1.27,0,1.98.55,1.98,1.68Zm-.84,1.23v-.58h-1.29c-.83,0-1.07.29-1.07.64,0,.41.38.67,1.02.67s1.13-.26,1.34-.73Z"/>
      <path class="cls-1" d="m99.14,35.46c-.25.2-.64.29-1.01.29-.94,0-1.47-.46-1.47-1.3v-2.27h-.79v-.62h.79v-.91h.84v.91h1.33v.62h-1.33v2.24c0,.44.26.69.73.69.24,0,.48-.07.66-.2l.26.54Z"/>
      <path class="cls-1" d="m104.39,33.89h-3.76c.1.73.76,1.21,1.68,1.21.54,0,1-.16,1.34-.5l.46.48c-.42.44-1.06.67-1.83.67-1.5,0-2.49-.88-2.49-2.12s.99-2.11,2.33-2.11,2.29.86,2.29,2.13c0,.06,0,.16-.02.23Zm-3.76-.54h2.97c-.09-.69-.67-1.19-1.49-1.19s-1.4.48-1.49,1.19Z"/>
    </g>
  </g>
</svg>